HIERARCHY
ROOT root
{
	OFFSET	0	13.1	24.9
	CHANNELS 6  Xposition Yposition Zposition Xrotation Yrotation Zrotation
	JOINT spine_1
	{
		OFFSET	0	9.99999	0
		CHANNELS 3  Xrotation Yrotation Zrotation
		JOINT spine_2
		{
			OFFSET	0	112	-10
			CHANNELS 3  Xrotation Yrotation Zrotation
			JOINT spine_3
			{
				OFFSET	0	206.5	19.3
				CHANNELS 3  Xrotation Yrotation Zrotation
				JOINT spine_4
				{
					OFFSET	0	110.4	14.6
					CHANNELS 3  Xrotation Yrotation Zrotation
					JOINT neck_1
					{
						OFFSET	0	71.8	-50.3
						CHANNELS 3  Xrotation Yrotation Zrotation
						JOINT neck_2
						{
							OFFSET	0	86.2	-25.8
							CHANNELS 3  Xrotation Yrotation Zrotation
							JOINT head_ee
							{
								OFFSET	0	179.8	-8.7
								CHANNELS 3  Xrotation Yrotation Zrotation
								End Site
								{
									OFFSET	1	0	0
								}
							}
						}
					}
					JOINT left_clavicle
					{
						OFFSET	-43.2	22.4	-70.8
						CHANNELS 3  Xrotation Yrotation Zrotation
						JOINT left_shoulder
						{
							OFFSET	-93.9	-5.79999	48.7
							CHANNELS 3  Xrotation Yrotation Zrotation
							JOINT left_elbow
							{
								OFFSET	-291.4	-30.8	15.2
								CHANNELS 3  Xrotation Yrotation Zrotation
								JOINT left_lowarm_twist
								{
									OFFSET	-110.7	-3.89999	13.6
									CHANNELS 3  Xrotation Yrotation Zrotation
									JOINT left_hand
									{
										OFFSET	-110.7	-3.89999	13.6
										CHANNELS 3  Xrotation Yrotation Zrotation
										JOINT left_ee
										{
											OFFSET	-80.8	-5.10001	12.1
											CHANNELS 3  Xrotation Yrotation Zrotation
											End Site
											{
												OFFSET	1	0	0
											}
										}
									}
								}
							}
						}
					}
					JOINT right_clavicle
					{
						OFFSET	43.2	22.4	-70.8
						CHANNELS 3  Xrotation Yrotation Zrotation
						JOINT right_shoulder
						{
							OFFSET	93.9	-5.79999	48.7
							CHANNELS 3  Xrotation Yrotation Zrotation
							JOINT right_elbow
							{
								OFFSET	291.4	-30.8	15.2
								CHANNELS 3  Xrotation Yrotation Zrotation
								JOINT right_lowarm_twist
								{
									OFFSET	110.7	-3.89999	13.6
									CHANNELS 3  Xrotation Yrotation Zrotation
									JOINT right_hand
									{
										OFFSET	110.7	-3.89999	13.6
										CHANNELS 3  Xrotation Yrotation Zrotation
										JOINT right_ee
										{
											OFFSET	80.8	-5.10001	12.1
											CHANNELS 3  Xrotation Yrotation Zrotation
											End Site
											{
												OFFSET	1	0	0
											}
										}
									}
								}
							}
						}
					}
				}
			}
		}
	}
	JOINT left_hip
	{
		OFFSET	-82.8	-127.5	0.300001
		CHANNELS 3  Xrotation Yrotation Zrotation
		JOINT left_knee
		{
			OFFSET	-28.2	-396.7	2.2
			CHANNELS 3  Xrotation Yrotation Zrotation
			JOINT left_ankle
			{
				OFFSET	-11.7	-411.3	35.4
				CHANNELS 3  Xrotation Yrotation Zrotation
				JOINT left_toes
				{
					OFFSET	0	-60	-88.6
					CHANNELS 3  Xrotation Yrotation Zrotation
					JOINT left_foot_ee
					{
						OFFSET	-22.5	-16.5	-42.2
						CHANNELS 3  Xrotation Yrotation Zrotation
						End Site
						{
							OFFSET	1	0	0
						}
					}
				}
			}
		}
	}
	JOINT right_hip
	{
		OFFSET	82.8	-127.5	0.300001
		CHANNELS 3  Xrotation Yrotation Zrotation
		JOINT right_knee
		{
			OFFSET	28.2	-396.7	2.2
			CHANNELS 3  Xrotation Yrotation Zrotation
			JOINT right_ankle
			{
				OFFSET	11.7	-411.3	35.4
				CHANNELS 3  Xrotation Yrotation Zrotation
				JOINT right_toes
				{
					OFFSET	0	-60	-88.6
					CHANNELS 3  Xrotation Yrotation Zrotation
					JOINT right_foot_ee
					{
						OFFSET	22.5	-16.5	-42.2
						CHANNELS 3  Xrotation Yrotation Zrotation
						End Site
						{
							OFFSET	1	0	0
						}
					}
				}
			}
		}
	}
}
MOTION
Frames: 13
Frame Time: 0.02
1093.19892771 720.094 -1618.26275577 33.4636085107 76.0705612915 -37.6418171091 -3.62971 0.406 1.28915 -3.62885 0.323152 1.31236 -3.61983 -0.0452459 1.3508 -3.62234 0.168636 1.341 5.06522 -3.42709 1.27067 5.13733 -6.9841 1.28759 -0.0 0.0 -0.0 2.32255 22.1069 5.84093 27.1737 47.0606 51.0438 0.19017 -5.38178 0.00893794 25.4099 0.185272 -3.21411 2.49158 -6.68455 14.1199 -0.0 0.0 -0.0 4.27677 29.8582 -5.87924 15.0378 -1.18371 -60.6382 0.836225 22.5012 -0.166347 75.6076 3.34205 8.34304 2.05001 10.5948 -9.3695 0.0 0.0 0.0 11.7657 -23.4897 14.2102 -55.8398 -1.7679 8.0514 27.0277 14.3522 -3.5961 7.67494 -0.0 -0.0 -0.0 0.0 -0.0 2.5399 -16.8779 8.97528 -16.9177 -0.3196 -2.56709 10.7998 -0.132748 1.54471 30.187 -0.0 -0.0 0.0 0.0 0.0 
1088.78178414 720.546 -1632.75460693 31.5332872689 76.1237253076 -36.3099474345 -3.48655 0.240954 1.45968 -3.48537 0.147592 1.47205 -3.47983 -0.254066 1.45746 -3.48279 -0.0207251 1.47929 4.35091 -3.42601 1.07794 4.41425 -6.84096 1.03075 -0.0 0.0 -0.0 2.15931 22.1121 5.61025 26.8714 46.1409 51.5245 0.190883 -5.40184 0.00900486 24.8022 0.197554 -3.13746 2.57354 -7.04559 14.5344 -0.0 0.0 -0.0 4.58017 29.1304 -6.61757 15.7467 -1.98036 -58.9236 0.994609 26.2289 -0.231723 75.9943 3.38493 8.36804 2.41407 13.9531 -10.3459 0.0 0.0 0.0 14.2619 -25.856 16.3101 -55.9574 -1.77964 8.06523 23.3248 16.2466 -3.17696 6.7711 -0.0 -0.0 -0.0 0.0 -0.0 2.2355 -17.3908 9.4472 -17.8077 -0.315291 -2.70359 12.5462 0.331612 1.7846 31.5762 -0.0 -0.0 0.0 0.0 0.0 
1077.67527563 719.728 -1643.1872392 30.6862509235 75.0706269688 -35.720492488 -3.27558 0.293073 1.58439 -3.2742 0.191673 1.59983 -3.26682 -0.240076 1.59328 -3.27036 0.0145329 1.6112 3.16531 -3.6736 1.20871 3.23366 -7.42667 1.09935 -0.0 0.0 -0.0 1.78446 21.4076 5.03864 25.0713 45.6485 52.6209 0.189345 -5.35856 0.00886059 26.0892 0.170579 -3.29965 2.68107 -7.50346 15.0853 -0.0 0.0 -0.0 4.66824 28.955 -6.82799 16.1639 -2.51802 -57.9943 1.10397 28.6723 -0.28215 75.7061 3.35296 8.34943 3.08229 15.9602 -13.976 0.0 0.0 0.0 20.4021 -26.6431 18.3705 -53.2842 -1.52007 7.74531 14.7956 17.4082 -2.0967 2.07086 -0.0 -0.0 -0.0 0.0 -0.0 -1.43129 -16.6775 8.60078 -14.8329 -0.321391 -2.24725 14.2393 2.52562 2.02392 31.9008 -0.0 -0.0 0.0 0.0 0.0 
1056.15872013 721.825 -1664.21637675 27.5788853928 73.3494016146 -33.2463826601 -3.63276 0.323984 1.67457 -3.63123 0.216785 1.69179 -3.62239 -0.250763 1.68709 -3.62636 0.0187879 1.70552 -0.844984 -2.87076 1.69363 -0.803419 -6.5121 1.471 -0.0 0.0 -0.0 2.10002 22.3029 5.53591 27.2851 47.316 50.75 0.195586 -5.5341 0.00945296 28.4415 0.111889 -3.59438 2.55333 -0.280218 17.216 -0.0 0.0 -0.0 4.91504 28.613 -7.40146 16.8358 -5.64996 -56.9281 1.44386 35.5719 -0.463202 75.8663 3.37072 8.35979 4.74879 19.4098 -23.8354 0.0 0.0 0.0 29.0902 -24.9331 21.0866 -50.7345 -1.28674 7.42937 -7.74265 15.5331 1.15887 -3.75657 0.0 0.0 -0.0 0.0 -0.0 -5.5349 -14.6154 7.78902 -7.50829 -0.23554 -1.1274 11.1059 5.73907 1.61744 32.1284 -0.0 -0.0 0.0 0.0 0.0 
1033.20270944 716.257 -1676.92239768 27.142037832 73.4685061354 -33.6720829995 -3.08217 0.328227 1.91615 -3.08015 0.205655 1.93315 -3.0704 -0.308568 1.91942 -3.07554 -0.00161963 1.94405 -0.354484 -2.90335 1.46798 -0.31474 -6.38013 1.25334 -0.0 0.0 -0.0 1.93583 20.8737 5.22549 24.492 45.526 49.9982 0.195545 -5.53297 0.00944908 28.3326 0.114873 -3.58079 1.74197 5.55731 13.8809 -0.0 0.0 -0.0 4.64416 29.0961 -6.76028 16.0578 -4.30171 -56.4954 1.54499 37.4258 -0.523368 75.9745 3.38272 8.36676 5.66442 22.6552 -28.4583 0.0 0.0 0.0 31.6802 -24.038 22.0825 -51.2263 -1.33064 7.49111 -14.6068 10.4361 2.18975 -6.36212 0.0 0.0 -0.0 0.0 -0.0 -6.91239 -17.5047 8.64192 -5.55724 -0.188589 -0.831689 15.3801 8.4927 2.22844 33.2353 -0.0 -0.0 0.0 0.0 0.0 
1012.19832098 712.191 -1689.82664862 24.4609219856 73.3416095644 -31.5776929779 -2.64379 0.421383 2.17473 -2.6412 0.28218 2.19712 -2.62697 -0.286949 2.1965 -2.6337 0.0634605 2.21425 -0.312321 -2.84259 1.19397 -0.278649 -6.0479 0.9682 -0.0 0.0 -0.0 1.45574 20.8574 4.52976 23.3739 44.3552 51.0968 0.197484 -5.58749 0.00963699 29.6309 0.0776165 -3.74244 0.664191 11.9223 9.15843 -0.0 0.0 -0.0 5.33642 28.8508 -8.29163 15.4045 -3.94223 -55.4767 1.68363 39.8255 -0.609926 74.2119 3.18873 8.25042 6.43697 23.9893 -33.2591 0.0 0.0 0.0 34.2649 -23.7413 22.2488 -48.9212 -1.12952 7.19861 -20.7818 5.47487 3.12987 -9.55258 0.0 0.0 -0.0 0.0 -0.0 -7.47284 -17.3788 9.02966 -6.23672 -0.206083 -0.934497 19.8672 10.218 2.84313 34.4525 -0.0 -0.0 0.0 0.0 0.0 
996.287795811 707.03 -1699.14003557 21.3669738354 72.1296787533 -28.8946125564 -2.41209 0.590666 2.33451 -2.40916 0.440961 2.36734 -2.38698 -0.166609 2.40227 -2.39497 0.214764 2.39845 -0.71982 -2.74753 1.88756 -0.675549 -6.44666 1.6994 -0.0 0.0 -0.0 0.775603 19.5344 3.42796 20.4975 44.5063 52.1163 0.199284 -5.63809 0.00981304 31.852 0.0054093 -4.01693 0.0970083 21.4525 9.19567 -0.0 0.0 -0.0 6.27189 29.2 -10.29 14.6334 -3.09966 -53.6638 1.93196 43.7378 -0.775488 73.473 3.10849 8.19989 6.70865 24.9213 -34.6158 0.0 0.0 0.0 35.911 -25.8734 22.4615 -41.5561 -0.568725 6.21473 -22.2557 2.28042 3.36838 -14.95 0.0 0.0 -0.0 0.0 -0.0 -8.63506 -16.5565 9.14243 -5.59768 -0.189664 -0.837802 23.7436 13.4833 3.39275 34.616 -0.0 -0.0 0.0 0.0 0.0 
990.333998148 703.692 -1711.86116301 11.442951533 69.9769541369 -20.6940198984 -2.15151 0.470662 2.70557 -2.14749 0.297611 2.73002 -2.1287 -0.384262 2.71918 -2.13901 0.0498365 2.74573 1.94947 -1.33964 1.92042 1.98003 -3.96919 2.00349 -0.0 0.0 -0.0 1.76765 19.0004 4.86456 24.7985 49.4396 47.8459 0.235756 -6.66135 0.0137202 31.5112 0.0171806 -3.97499 -1.55211 25.0317 1.14484 -0.0 0.0 -0.0 5.87651 28.8984 -9.462 16.533 -7.04299 -59.4613 2.37701 49.6528 -1.09979 69.6333 2.7024 7.92096 7.27769 25.6469 -38.4306 0.0 0.0 0.0 37.7074 -29.1882 22.0964 -27.6213 0.1278 4.19601 -23.1661 0.60647 3.51922 -29.1756 0.0 0.0 -0.0 0.0 -0.0 -7.85371 -13.5174 9.51589 -0.622474 -0.0251304 -0.0922197 20.5274 12.6493 2.96944 34.0899 -0.0 -0.0 0.0 0.0 0.0 
980.751888566 705.116 -1734.28816191 6.07988127425 67.4111307189 -15.5042358707 -1.95015 0.739 2.87032 -1.94574 0.554936 2.91148 -1.91214 -0.168109 2.95908 -1.92423 0.301124 2.94853 3.45083 -0.752693 0.436868 3.45498 -1.68186 0.439753 -0.0 0.0 -0.0 1.92742 17.6591 5.02257 25.4767 50.1576 46.9362 0.263826 -7.44604 0.0171673 33.4006 -0.0512104 -4.20658 -2.50726 28.5667 -2.39543 -0.0 0.0 -0.0 5.71354 29.271 -9.06565 16.6038 -6.53973 -60.8482 2.25643 48.1764 -1.0089 68.0051 2.53604 7.79462 7.40129 25.3039 -39.7034 0.0 0.0 0.0 37.4274 -33.192 23.1086 -23.1865 0.244206 3.52555 -17.7101 1.19715 2.68283 -34.1734 0.0 0.0 -0.0 0.0 -0.0 -8.28328 -13.0216 9.67902 0.281161 0.0116797 0.0415654 24.5158 14.6517 3.51455 34.0647 -0.0 -0.0 0.0 0.0 0.0 
968.459238942 697.344 -1755.87901793 5.69175275572 64.5705262055 -14.6399985514 -2.12577 0.929338 3.01296 -2.12102 0.735825 3.06592 -2.07516 -0.038839 3.15266 -2.08873 0.459306 3.1193 3.88146 0.567215 1.13345 3.88488 0.00337344 1.31222 -0.0 0.0 -0.0 1.70793 17.3817 4.66676 25.5555 50.8612 46.0603 0.283707 -8.00014 0.0198391 35.3552 -0.129968 -4.44368 -2.88173 28.7707 -4.30482 -0.0 0.0 -0.0 5.22068 29.1617 -8.00569 16.4598 -6.30165 -60.5893 2.17511 47.1299 -0.948788 67.1108 2.44621 7.72324 7.51862 24.7834 -41.1038 0.0 0.0 0.0 40.4181 -36.0093 22.5715 -17.2343 0.31831 2.61566 -18.0647 1.58882 2.73465 -38.9645 0.0 0.0 -0.0 0.0 -0.0 -9.25973 -11.1353 9.11603 -4.32771 -0.153836 -0.6462 31.5176 16.6306 4.38251 34.7707 -0.0 -0.0 0.0 0.0 0.0 
964.465927127 697.344 -1750.04760104 5.86952610995 65.390106028 -14.836176133 -2.12577 0.929338 3.01296 -2.12102 0.735825 3.06592 -2.07516 -0.038839 3.15266 -2.08873 0.459306 3.1193 3.88146 0.567215 1.13345 3.88488 0.00337344 1.31222 -0.0 0.0 -0.0 1.70793 17.3817 4.66676 25.5555 50.8612 46.0603 0.283707 -8.00014 0.0198391 35.3552 -0.129968 -4.44368 -2.88173 28.7707 -4.30482 -0.0 0.0 -0.0 5.22068 29.1617 -8.00569 16.4598 -6.30165 -60.5893 2.17511 47.1299 -0.948788 67.1108 2.44621 7.72324 7.51862 24.7834 -41.1038 0.0 0.0 0.0 40.4181 -36.0093 22.5715 -17.2343 0.31831 2.61566 -18.0647 1.58882 2.73465 -38.9645 0.0 0.0 -0.0 0.0 -0.0 -9.25973 -11.1353 9.11603 -4.32771 -0.153836 -0.6462 31.5176 16.6306 4.38251 34.7707 -0.0 -0.0 0.0 0.0 0.0 
961.660790258 697.344 -1745.84092174 6.00442363363 65.9762627118 -14.9842046002 -2.12577 0.929338 3.01296 -2.12102 0.735825 3.06592 -2.07516 -0.038839 3.15266 -2.08873 0.459306 3.1193 3.88146 0.567215 1.13345 3.88488 0.00337344 1.31222 -0.0 0.0 -0.0 1.70793 17.3817 4.66676 25.5555 50.8612 46.0603 0.283707 -8.00014 0.0198391 35.3552 -0.129968 -4.44368 -2.88173 28.7707 -4.30482 -0.0 0.0 -0.0 5.22068 29.1617 -8.00569 16.4598 -6.30165 -60.5893 2.17511 47.1299 -0.948788 67.1108 2.44621 7.72324 7.51862 24.7834 -41.1038 0.0 0.0 0.0 40.4181 -36.0093 22.5715 -17.2343 0.31831 2.61566 -18.0647 1.58882 2.73465 -38.9645 0.0 0.0 -0.0 0.0 -0.0 -9.25973 -11.1353 9.11603 -4.32771 -0.153836 -0.6462 31.5176 16.6306 4.38251 34.7707 -0.0 -0.0 0.0 0.0 0.0 
958.19522244 697.344 -1740.51080242 6.18401977194 66.7130922215 -15.1802713619 -2.12577 0.929338 3.01296 -2.12102 0.735825 3.06592 -2.07516 -0.038839 3.15266 -2.08873 0.459306 3.1193 3.88146 0.567215 1.13345 3.88488 0.00337344 1.31222 -0.0 0.0 -0.0 1.70793 17.3817 4.66676 25.5555 50.8612 46.0603 0.283707 -8.00014 0.0198391 35.3552 -0.129968 -4.44368 -2.88173 28.7707 -4.30482 -0.0 0.0 -0.0 5.22068 29.1617 -8.00569 16.4598 -6.30165 -60.5893 2.17511 47.1299 -0.948788 67.1108 2.44621 7.72324 7.51862 24.7834 -41.1038 0.0 0.0 0.0 40.4181 -36.0093 22.5715 -17.2343 0.31831 2.61566 -18.0647 1.58882 2.73465 -38.9645 0.0 0.0 -0.0 0.0 -0.0 -9.25973 -11.1353 9.11603 -4.32771 -0.153836 -0.6462 31.5176 16.6306 4.38251 34.7707 -0.0 -0.0 0.0 0.0 0.0 
